<svg xmlns="http://www.w3.org/2000/svg" xmlns:xlink="http://www.w3.org/1999/xlink" width="500" zoomAndPan="magnify" viewBox="0 0 375 350.250003" height="467" preserveAspectRatio="xMidYMid meet" version="1.0"><path fill="#20639b" d="M 329.726562 256.234375 C 321.21875 258.269531 306.328125 259.667969 288.4375 252.117188 C 284.65625 250.519531 280.414062 250.484375 276.589844 251.980469 C 256.339844 259.847656 224.371094 259.359375 206.457031 255.226562 C 192.234375 251.941406 188.800781 259.53125 195.207031 266.472656 C 207.5625 279.863281 227.089844 279.914062 238.347656 299.601562 C 249.597656 319.289062 248.140625 328.609375 251.582031 330.796875 C 255.027344 332.984375 271.132812 329.585938 274.300781 322.730469 C 276.179688 318.667969 258.390625 314.765625 254.609375 293.980469 C 253.980469 290.539062 291.179688 303.359375 313.691406 288.355469 C 326.621094 279.734375 332.53125 269.574219 335.222656 262.484375 C 336.558594 258.960938 333.390625 255.363281 329.726562 256.242188 Z M 329.726562 256.234375 " fill-opacity="1" fill-rule="nonzero"/><path fill="#9068ba" d="M 138.773438 194.507812 C 138.773438 194.507812 147.460938 191.902344 160.277344 197.984375 C 171.386719 203.25 191.9375 200.046875 202.886719 191.332031 C 205.714844 189.082031 209.5625 188.554688 212.867188 190.019531 C 218.089844 192.335938 226.886719 195.070312 239.136719 194.941406 C 260.207031 194.722656 262.378906 190.164062 266.292969 178.867188 C 270.203125 167.574219 266.96875 152.636719 251.085938 148.898438 C 243.917969 147.210938 238.484375 148.066406 235.535156 148.882812 C 233.933594 149.332031 232.207031 149.054688 230.820312 148.125 C 225.539062 144.589844 211.316406 137.023438 193.078125 142.808594 C 169.832031 150.195312 164.832031 162.136719 164.832031 162.136719 C 164.832031 162.136719 115.945312 163.003906 100.523438 198.402344 C 85.101562 233.804688 117.902344 254.65625 141.15625 255.746094 C 164.398438 256.832031 184.171875 247.492188 195.035156 245.753906 C 205.894531 244.015625 220.667969 255.089844 249.128906 250.746094 C 277.59375 246.402344 284.542969 241.1875 284.976562 227.941406 C 285.40625 214.695312 272.160156 210.128906 267.8125 205.785156 C 263.46875 201.441406 262.597656 197.746094 247.824219 199.917969 C 235.070312 201.792969 222.011719 199.566406 212.605469 196.058594 C 209.851562 195.027344 206.796875 195.171875 204.175781 196.527344 C 198.214844 199.601562 187.160156 207.039062 172.65625 204.910156 C 163.75 203.605469 155.710938 220.984375 148.539062 227.714844 C 148.539062 227.714844 156.359375 210.34375 156.792969 204.261719 C 157.226562 198.179688 138.757812 194.484375 138.757812 194.484375 Z M 138.773438 194.507812 " fill-opacity="1" fill-rule="nonzero"/><path fill="#3ca277" d="M 356.988281 221.691406 C 368.761719 223.207031 370.832031 208.476562 370.832031 208.476562 C 374.597656 193.425781 370.875 184.023438 368.015625 179.480469 C 366.703125 177.386719 366.601562 174.753906 367.808594 172.605469 C 370.628906 167.589844 374.425781 157.902344 369.792969 147.289062 C 365.101562 136.546875 354.492188 131.851562 340.449219 140.695312 C 333.527344 145.050781 329.292969 151.097656 326.773438 156.113281 C 324.574219 160.484375 319.585938 162.785156 314.859375 161.496094 C 301.371094 157.808594 286.65625 163.796875 278.695312 172.523438 C 269.003906 183.152344 268.695312 200.964844 280.574219 207.839844 C 292.453125 214.714844 291.824219 230.96875 291.203125 236.28125 C 290.574219 241.589844 289.636719 250.96875 315.277344 248.78125 C 323.15625 248.113281 330.128906 246.191406 334.371094 243.234375 C 338.617188 240.277344 348.992188 238.175781 348.183594 228.214844 C 347.773438 223.171875 342.542969 220.164062 339.335938 217.082031 C 336.226562 214.089844 333.234375 211.179688 331.21875 209.210938 C 329.8125 207.839844 327.726562 207.492188 325.914062 208.257812 C 317.515625 211.816406 306.53125 207.082031 306.53125 207.082031 C 306.53125 207.082031 322.632812 208.53125 325.230469 200.375 C 327.421875 193.484375 324.898438 182.523438 324.898438 182.523438 C 328.9375 186.707031 330.121094 194.722656 330.460938 198.332031 C 330.578125 199.59375 331.074219 200.777344 331.890625 201.75 C 335.84375 206.453125 348.027344 220.148438 356.988281 221.691406 Z M 356.988281 221.691406 " fill-opacity="1" fill-rule="nonzero"/><path fill="#ed553b" d="M 305.59375 154.980469 C 292.710938 155.457031 287.066406 160.296875 281.078125 163.5 C 274.800781 166.855469 272.246094 161.761719 268.953125 155.382812 C 266.71875 151.039062 268.1875 148.019531 270.03125 146.285156 C 271.871094 144.554688 273.824219 142.074219 281.402344 142.398438 C 288.980469 142.722656 293.308594 137.636719 293.308594 137.636719 C 287.601562 139.582031 280.191406 139.722656 276.15625 136.582031 C 272.121094 133.445312 271.675781 118.0625 271.675781 118.0625 C 268.238281 124.484375 269.582031 131.65625 269.582031 135.390625 C 269.582031 139.128906 268.382812 140.472656 265.394531 143.457031 C 262.410156 146.445312 259.71875 147.042969 251.953125 143.753906 C 246.402344 141.410156 239.941406 141.582031 236.710938 141.871094 C 235.367188 141.992188 234.027344 141.65625 232.886719 140.941406 C 221.367188 133.667969 208.679688 135.59375 204.128906 133.175781 C 199.34375 130.636719 191.136719 118.214844 196.21875 98.945312 C 199.839844 85.199219 208.976562 77.769531 213.914062 74.640625 C 215.816406 73.433594 217.160156 71.507812 217.585938 69.300781 C 220.148438 55.859375 235.671875 33.550781 260.511719 36.027344 C 287.679688 38.734375 294.5 57.886719 294.5 57.886719 C 294.5 57.886719 308.355469 58.429688 321.886719 69.035156 C 335.417969 79.636719 336.175781 97.386719 336.175781 97.386719 C 336.175781 97.386719 347.757812 102.6875 349.816406 112.96875 C 351.875 123.25 349.910156 129.980469 343.871094 132.601562 C 335.542969 136.207031 329.226562 145.195312 326.421875 148.949219 C 323.605469 152.699219 319.457031 153.558594 320.308594 144.988281 C 321.167969 136.417969 327.367188 116.828125 308.371094 104.976562 C 289.378906 93.121094 266.824219 90.871094 262.402344 87.871094 C 257.96875 84.867188 255.90625 76.949219 257.414062 74.640625 C 258.914062 72.332031 263.738281 70.324219 263.738281 59.097656 C 263.738281 59.097656 260.324219 69.929688 253.707031 72.238281 C 247.085938 74.546875 239.359375 67.425781 239.359375 67.425781 C 239.359375 67.425781 238.660156 72.285156 250.089844 75.75 C 253.402344 76.753906 255.515625 84.976562 255.316406 89.082031 C 255.113281 93.195312 246.417969 101.296875 241.488281 102.558594 C 237.777344 103.511719 230.957031 102.269531 226.015625 105.429688 C 226.015625 105.429688 237.222656 105.984375 239.257812 108.742188 C 243.769531 114.859375 242.671875 124.484375 242.671875 124.484375 C 242.671875 124.484375 246.402344 118.011719 245.378906 110.949219 C 244.273438 103.332031 257.8125 95.207031 261.425781 94.703125 C 265.035156 94.203125 283.992188 97.8125 301.746094 107.039062 C 319.5 116.265625 318.070312 132.925781 315.890625 145.046875 C 314.46875 152.921875 314.757812 154.664062 305.601562 155 Z M 305.59375 154.980469 " fill-opacity="1" fill-rule="nonzero"/><path fill="#f6b023" d="M 137.519531 36.292969 C 137.519531 36.292969 142.605469 17.101562 181.222656 24.734375 C 181.222656 24.734375 190.011719 16.410156 212.671875 21.726562 C 235.332031 27.046875 228.398438 37.449219 223.769531 43.457031 C 219.46875 49.050781 213.167969 56.4375 210.824219 65.433594 C 210.492188 66.710938 209.742188 67.84375 208.667969 68.609375 C 204.496094 71.558594 193.742188 80.539062 189.320312 97.3125 C 183.769531 118.351562 192.097656 127.832031 192.097656 132.917969 C 192.097656 138.003906 172.4375 140.542969 162.269531 154.878906 C 162.269531 154.878906 119.492188 156.265625 99.371094 186.320312 C 79.25 216.375 47.109375 215.90625 33.929688 199.03125 C 20.753906 182.15625 27.226562 164.820312 27.226562 164.820312 C 27.226562 164.820312 0.402344 148.40625 17.050781 122.050781 C 33.699219 95.699219 90.277344 96 95.667969 101.476562 C 106.574219 112.542969 116.25 111.878906 116.25 111.878906 C 116.25 111.878906 100.476562 103.222656 99.855469 96.136719 C 99.234375 89.054688 119.007812 82.089844 119.007812 82.089844 C 119.007812 82.089844 106.449219 80.222656 95.003906 91.664062 C 92.269531 94.398438 55.660156 95.214844 53.21875 91.167969 C 43.175781 74.472656 99.226562 35.847656 126.707031 47.65625 C 154.1875 59.46875 150.421875 73.636719 149.589844 85.84375 C 148.761719 98.050781 148.949219 109.382812 124.527344 122.832031 C 100.105469 136.28125 87.5 138.601562 61.214844 123.703125 C 61.214844 123.703125 74.183594 133.214844 73.96875 136.75 C 73.476562 144.691406 59.492188 152.214844 59.492188 152.214844 C 59.492188 152.214844 70.539062 148.199219 75.757812 142.144531 C 81.386719 135.609375 87.050781 136.769531 90.480469 138.746094 C 96.21875 142.066406 83.457031 163.125 75.6875 166.371094 C 67.132812 169.941406 58.386719 178.074219 58.386719 178.074219 C 58.386719 178.074219 72.28125 169.554688 78.246094 171.652344 C 84.214844 173.75 88.777344 183.269531 88.777344 183.269531 C 88.777344 183.269531 84.019531 171.109375 85.015625 166.695312 C 86.011719 162.273438 95.742188 144.488281 100.929688 140.066406 C 106.125 135.644531 126.042969 127.457031 135.742188 119.960938 C 145.585938 112.355469 149.007812 109.355469 152.542969 113 C 156.078125 116.640625 151.105469 128.132812 154.75 137.636719 C 154.75 137.636719 155.855469 124.484375 160.828125 119.84375 C 165.800781 115.207031 175.75 120.070312 175.75 120.070312 C 175.75 120.070312 170.339844 114.984375 163.257812 113.214844 C 156.1875 111.449219 153.863281 107.582031 153.648438 102.941406 C 153.421875 98.300781 154.835938 77.898438 157.578125 74.472656 C 162.097656 68.824219 171.117188 63.160156 176.082031 63.160156 C 180.175781 63.160156 183.820312 72 191.339844 71.78125 C 191.339844 71.78125 182.714844 65.707031 181.394531 57.417969 C 180.074219 49.164062 190.675781 45.484375 190.675781 45.484375 C 190.675781 45.484375 181.609375 44.382812 177.078125 53.109375 C 172.546875 61.839844 159.226562 66.40625 156.410156 65.707031 C 151.988281 64.605469 151.988281 57.203125 141.488281 49.242188 C 136.03125 45.109375 135.835938 42.570312 137.503906 36.292969 Z M 137.519531 36.292969 " fill-opacity="1" fill-rule="nonzero"/></svg>